<svg xmlns="http://www.w3.org/2000/svg" xmlns:xlink="http://www.w3.org/1999/xlink" viewBox="0 0 485.2 543.77"><defs><style>.cls-1{fill:#6ea6ff;}.cls-2{fill:url(#linear-gradient);}.cls-3{fill:url(#linear-gradient-2);}.cls-4{fill:#ec1c24;}.cls-5{fill:#20d5d2;}.cls-6{fill:#0062ff;}.cls-7{fill:#418cff;}.cls-8{fill:#054ada;}.cls-9{fill:url(#linear-gradient-3);}.cls-10{fill:url(#linear-gradient-4);}.cls-11{fill:#00a551;}.cls-12{fill:url(#New_Gradient_Swatch_7);}.cls-13{fill:url(#New_Gradient_Swatch_7-2);}.cls-14{fill:#f4f7fb;}.cls-15{fill:url(#New_Gradient_Swatch_7-3);}.cls-16{fill:url(#New_Gradient_Swatch_7-4);}.cls-17{fill:url(#linear-gradient-5);}.cls-18{fill:url(#New_Gradient_Swatch_7-5);}.cls-19{fill:url(#New_Gradient_Swatch_7-6);}.cls-20{fill:url(#New_Gradient_Swatch_7-7);}.cls-21{fill:url(#linear-gradient-6);}.cls-22{fill:url(#linear-gradient-7);}</style><linearGradient id="linear-gradient" x1="33.75" y1="359.66" x2="100.81" y2="243.51" gradientUnits="userSpaceOnUse"><stop offset="0.45" stop-color="#0062ff" stop-opacity="0"/><stop offset="1" stop-color="#054ada"/></linearGradient><linearGradient id="linear-gradient-2" x1="156.27" y1="359.66" x2="89.2" y2="243.5" xlink:href="#linear-gradient"/><linearGradient id="linear-gradient-3" x1="164.07" y1="433.89" x2="231.13" y2="317.74" xlink:href="#linear-gradient"/><linearGradient id="linear-gradient-4" x1="286.59" y1="433.89" x2="219.52" y2="317.73" xlink:href="#linear-gradient"/><linearGradient id="New_Gradient_Swatch_7" x1="-863.69" y1="87.45" x2="-814.61" y2="87.45" gradientTransform="matrix(-1, 0, 0, 1, -637.21, 0)" gradientUnits="userSpaceOnUse"><stop offset="0" stop-color="#20d5d2"/><stop offset="1" stop-color="#0062ff"/></linearGradient><linearGradient id="New_Gradient_Swatch_7-2" x1="-877.01" y1="69.1" x2="-865.05" y2="69.1" xlink:href="#New_Gradient_Swatch_7"/><linearGradient id="New_Gradient_Swatch_7-3" x1="-1021.13" y1="157.78" x2="-947.57" y2="157.78" xlink:href="#New_Gradient_Swatch_7"/><linearGradient id="New_Gradient_Swatch_7-4" x1="-1041.08" y1="130.28" x2="-1023.17" y2="130.28" xlink:href="#New_Gradient_Swatch_7"/><linearGradient id="linear-gradient-5" x1="-710.77" y1="41.79" x2="-637.21" y2="41.79" gradientTransform="matrix(-1, 0, 0, 1, -637.21, 0)" gradientUnits="userSpaceOnUse"><stop offset="0" stop-color="#00bab6"/><stop offset="1" stop-color="#0062ff"/></linearGradient><linearGradient id="New_Gradient_Swatch_7-5" x1="-730.72" y1="14.29" x2="-712.8" y2="14.29" xlink:href="#New_Gradient_Swatch_7"/><linearGradient id="New_Gradient_Swatch_7-6" x1="-1104.94" y1="227.95" x2="-1051.89" y2="227.95" xlink:href="#New_Gradient_Swatch_7"/><linearGradient id="New_Gradient_Swatch_7-7" x1="-1119.33" y1="208.11" x2="-1106.41" y2="208.11" xlink:href="#New_Gradient_Swatch_7"/><linearGradient id="linear-gradient-6" x1="291.75" y1="508.66" x2="358.81" y2="392.51" xlink:href="#linear-gradient"/><linearGradient id="linear-gradient-7" x1="414.27" y1="508.66" x2="347.2" y2="392.5" xlink:href="#linear-gradient"/></defs><title>Asset 6</title><g id="Layer_2" data-name="Layer 2"><g id="Layer_25" data-name="Layer 25"><polygon class="cls-1" points="93.83 214.41 139.97 214.41 95 240.15 39.55 208.4 66.48 192.98 76.11 187.46 86.1 181.74 87.95 180.68 93.83 177.31 95 176.64 105.33 182.55 107.09 183.56 112.39 186.59 140.16 202.5 105.33 202.5 105.33 207.76 93.83 214.41"/><polygon class="cls-2" points="39.55 363.01 39.55 208.4 95 240.16 95 394.77 39.55 363.01"/><polygon class="cls-3" points="150.46 208.4 150.46 363.01 95 394.76 95 240.15 139.97 214.41 139.98 214.41 150.46 208.4"/><path class="cls-4" d="M88,187.61l-5.48,3.16h0l-3.66,9.11,15-8.67Z"/><polygon class="cls-5" points="91.02 151.26 69.17 204.34 63.28 200.74 85.13 147.67 91.02 151.26"/><path class="cls-6" d="M107.09,183.56l-.58.33-1.18.68V143l-5.9,3.4L91,151.27l-14.9,36.19-7,16.88v11.88L88,205.37l5.88-3.4v12.44l11.5-6.64V195.34l7.06-4.09V180.49Zm-13.26,7.65-15,8.67,3.66-9.11,3.63-9L88,177.15,93,164.49l.8-.46Z"/><polygon class="cls-7" points="93.83 164.02 93.83 191.21 87.95 187.61 87.95 177.15 93.03 164.49 93.83 164.02"/><polygon class="cls-5" points="105.33 143.01 99.44 146.41 91.02 151.26 85.13 147.67 99.44 139.41 105.33 143.01"/><polygon class="cls-5" points="69.17 204.34 69.17 216.21 63.28 212.62 63.28 200.74 69.17 204.34"/><polygon class="cls-7" points="93.83 201.97 93.83 214.41 87.95 210.81 87.95 205.37 93.83 201.97"/><polygon class="cls-7" points="93.83 191.21 78.81 199.88 82.47 190.77 87.95 187.61 93.83 191.21"/><polygon class="cls-8" points="112.4 180.49 106.51 183.89 105.33 184.57 105.33 177.58 106.51 176.89 112.4 180.49"/><polygon class="cls-8" points="150.46 208.4 139.98 214.41 93.83 214.41 105.33 207.76 105.33 202.5 140.16 202.5 150.46 208.4"/><path class="cls-1" d="M219.82,291.08H266l-40.69,23.3-55.46-31.75,55.46-31.76,48.18,27.59H239.73a59.76,59.76,0,0,1-6.23,6.32C230.93,286.85,224.93,290.73,219.82,291.08Z"/><polygon class="cls-9" points="169.87 437.24 169.87 282.63 225.33 314.39 225.33 469 169.87 437.24"/><polygon class="cls-10" points="280.79 282.63 280.79 437.24 225.33 469 225.33 314.38 266.02 291.08 280.79 282.63"/><path class="cls-5" d="M242.22,220.94a8.44,8.44,0,0,0-3.62-.82,12,12,0,0,0-2.95.33,24.71,24.71,0,0,0-6.78,2.83C214.68,231.47,208,247.23,208,267.65c0,7.32.85,13.05,2.61,17a13.89,13.89,0,0,0,1.62,2.83A9.18,9.18,0,0,0,215,290l-6.42-3.34-.17-.09h0l-.14-.07-.11-.06c-4.74-2.7-7-10.42-7-22.36,0-20.42,6.66-36.17,20.85-44.37,5.79-3.34,10.32-4,13.67-2.18h0Z"/><path class="cls-11" d="M208.4,286.54h0l-.14-.08Z"/><path class="cls-7" d="M229.6,234.26a33.31,33.31,0,0,1,.6,7.09v11.82c0,9.49-2,16.21-8.22,19.79-.24.14-.49.27-.72.39,1,4.31,3.27,5.71,7.61,3.2,6.21-3.58,8.22-10.29,8.22-19.78V245C237.09,235.83,235.23,231.43,229.6,234.26Z"/><path class="cls-6" d="M237.09,245v11.82c0,9.49-2,16.2-8.22,19.78-4.34,2.51-6.63,1.11-7.61-3.2a33.23,33.23,0,0,1-.61-7.09V254.44c0-9.49,2-16.21,8.22-19.79l.73-.39C235.23,231.43,237.09,235.83,237.09,245Zm5.7-23.71-.09-.05-.48-.25a8.44,8.44,0,0,0-3.62-.82,12,12,0,0,0-2.95.33,24.71,24.71,0,0,0-6.78,2.83C214.68,231.47,208,247.23,208,267.65c0,7.32.85,13.05,2.61,17a13.89,13.89,0,0,0,1.62,2.83A9.18,9.18,0,0,0,215,290l.28.16.3.15h0c3.3,1.55,7.71.84,13.28-2.38,14.19-8.19,20.86-23.95,20.86-44.36C249.73,231.68,247.48,224,242.79,221.24Z"/><path class="cls-8" d="M280.79,282.63,266,291.08h-46.2c5.11-.35,11.11-4.23,13.68-6.3a59.76,59.76,0,0,0,6.23-6.32h33.79Z"/><path class="cls-12" d="M177.4,104.82c0,3.41,1,6,2.72,7.47l3.14,3,0,0h0l-.18-.26a3.28,3.28,0,0,1-.2-.31,11.28,11.28,0,0,1-1.43-5.91c0-8.09,5.72-17.92,12.78-22a13.33,13.33,0,0,1,3.66-1.48,41.07,41.07,0,0,1,7.71-13.1A33.69,33.69,0,0,1,210,68l.42-.33c.29-.22.57-.42.86-.62s.58-.4.88-.59.67-.42,1-.61l.51-.29.25-.13c.25-.14.51-.26.76-.38h0a14.79,14.79,0,0,1,6.08-1.54,8.73,8.73,0,0,1,5.72,1.94l-3.19-3.19h0a8.59,8.59,0,0,0-6.55-2.73,15.68,15.68,0,0,0-7.6,2.34,30.47,30.47,0,0,0-7.6,6.37,39.1,39.1,0,0,0-3.11,4h0v0a41.64,41.64,0,0,0-4.4,8.51l-.24.48-.1.08a13.45,13.45,0,0,0-3.5,1.44,24.87,24.87,0,0,0-7.87,7.62h0C179.32,94.87,177.4,100.14,177.4,104.82Z"/><path class="cls-13" d="M227.84,67.21a12.72,12.72,0,0,1,2.06,5.43h0l.26-.22.33-.26a14.73,14.73,0,0,1,1.81-1.22c2.95-1.69,5.6-1.76,7.45-.52l0,0-2.89-3a5.81,5.81,0,0,0-.9-.89l0,0h0a5.08,5.08,0,0,0-3.14-1h-.17a9.37,9.37,0,0,0-4.35,1.38Z"/><path class="cls-14" d="M181.41,108.81a11.28,11.28,0,0,0,1.43,5.91l.2.31.18.26h0c2.23,2.95,6.29,3.46,10.92.81L232.5,94.18c5.6-3.2,10.14-11,10.15-17.4a8.06,8.06,0,0,0-1.75-5.53s0,0,0,0l-.43-.43c-.14-.12-.29-.23-.44-.34l0,0c-1.85-1.24-4.51-1.17-7.45.52a14.82,14.82,0,0,0-1.82,1.22l-.32.26-.27.22h0a12.59,12.59,0,0,0-2.06-5.43,6.55,6.55,0,0,0-.45-.59s0,0,0,0a9.11,9.11,0,0,0-1.12-1.12,8.73,8.73,0,0,0-5.72-1.94,14.79,14.79,0,0,0-6.08,1.54h0l-.75.38-.26.13-.51.29c-.34.19-.68.4-1,.61s-.59.38-.88.59l-.86.62L210,68a33.69,33.69,0,0,0-4.42,4.22,41.25,41.25,0,0,0-7.71,13.1,13.33,13.33,0,0,0-3.66,1.48C187.13,90.89,181.41,100.72,181.41,108.81Z"/><path class="cls-15" d="M310.36,183.81c0,5.11,1.53,8.94,4.08,11.2l4.71,4.56,0-.06h0l-.27-.38-.3-.47a16.85,16.85,0,0,1-2.14-8.86c0-12.12,8.57-26.86,19.16-32.92a20.37,20.37,0,0,1,5.47-2.22A61.74,61.74,0,0,1,352.58,135a49.64,49.64,0,0,1,6.62-6.31l.64-.5c.43-.32.85-.63,1.29-.93s.87-.6,1.31-.88,1-.63,1.52-.92l.76-.43.38-.2c.38-.2.75-.38,1.13-.56h0a22,22,0,0,1,9.11-2.31,13,13,0,0,1,8.58,2.91l-4.78-4.79h0a12.85,12.85,0,0,0-9.82-4.09,23.66,23.66,0,0,0-11.39,3.5A45.64,45.64,0,0,0,346.55,129a59.34,59.34,0,0,0-4.66,6.06h0l0,0a62,62,0,0,0-6.58,12.77l-.37.71-.14.12a20.14,20.14,0,0,0-5.25,2.16,37.31,37.31,0,0,0-11.8,11.42h0C313.24,168.91,310.36,176.8,310.36,183.81Z"/><path class="cls-16" d="M386,127.45a19,19,0,0,1,3.09,8.14h0l.4-.35.48-.38a23.13,23.13,0,0,1,2.72-1.83c4.42-2.53,8.39-2.64,11.17-.78l.06.05-4.34-4.49a7.64,7.64,0,0,0-1.35-1.32l0,0h0a7.69,7.69,0,0,0-4.71-1.49h-.26a14.1,14.1,0,0,0-6.51,2.06C386.41,127.16,386.18,127.3,386,127.45Z"/><path class="cls-14" d="M316.38,189.79a16.85,16.85,0,0,0,2.14,8.86l.3.47.27.38h0c3.35,4.42,9.43,5.17,16.37,1.2l57.47-32.84c8.39-4.79,15.2-16.47,15.21-26.08,0-3.63-1-6.45-2.61-8.29a0,0,0,0,1,0,0l-.65-.63a6.45,6.45,0,0,0-.66-.51l-.06-.05c-2.78-1.86-6.75-1.75-11.16.78a21.58,21.58,0,0,0-2.72,1.83l-.49.38-.4.35h0a19,19,0,0,0-3.09-8.14,9.8,9.8,0,0,0-.68-.88l0,0a12.63,12.63,0,0,0-1.67-1.68,13,13,0,0,0-8.58-2.91,22,22,0,0,0-9.11,2.31h0l-1.13.56-.38.2-.77.43c-.51.29-1,.6-1.52.92s-.87.57-1.3.88-.87.61-1.29.93l-.64.5a49.71,49.71,0,0,0-6.63,6.31A61.9,61.9,0,0,0,341,154.65a20.42,20.42,0,0,0-5.48,2.22C325,162.93,316.38,177.67,316.38,189.79Z"/><path class="cls-17" d="M0,67.82C0,72.93,1.52,76.76,4.08,79l4.71,4.55,0,0h0l-.27-.38-.3-.47A16.85,16.85,0,0,1,6,73.8C6,61.67,14.6,46.94,25.19,40.88a20.29,20.29,0,0,1,5.47-2.23A61.86,61.86,0,0,1,42.21,19a51.08,51.08,0,0,1,6.63-6.32l.64-.49c.42-.33.85-.64,1.29-.94s.87-.59,1.31-.88,1-.62,1.52-.92l.76-.42.38-.2c.38-.2.75-.39,1.13-.56h0A21.94,21.94,0,0,1,65,6a13,13,0,0,1,8.58,2.9L68.78,4.09h0A12.86,12.86,0,0,0,59,0,23.55,23.55,0,0,0,47.57,3.5,45.63,45.63,0,0,0,36.19,13a58.47,58.47,0,0,0-4.67,6.07h0v0a62,62,0,0,0-6.58,12.77l-.37.7-.15.12a20.63,20.63,0,0,0-5.24,2.17A37.31,37.31,0,0,0,7.36,46.32h0C2.88,52.91,0,60.8,0,67.82Z"/><path class="cls-18" d="M75.59,11.45a19.06,19.06,0,0,1,3.09,8.15h0l.4-.34.48-.38a21.23,21.23,0,0,1,2.72-1.83c4.42-2.53,8.39-2.64,11.16-.78a.18.18,0,0,1,.07.05l-4.34-4.49a8.07,8.07,0,0,0-1.35-1.33l0,0h0A7.7,7.7,0,0,0,83.06,9H82.8a14.16,14.16,0,0,0-6.51,2Z"/><path class="cls-14" d="M6,73.8a16.85,16.85,0,0,0,2.15,8.86c.1.16.19.31.3.47s.18.25.27.38h0c3.35,4.41,9.42,5.17,16.37,1.2L82.58,51.88C91,47.08,97.78,35.4,97.79,25.8c0-3.64-1-6.45-2.61-8.29,0,0,0,0,0,0l-.65-.64a6.36,6.36,0,0,0-.66-.5.18.18,0,0,0-.07-.05C91,14.44,87,14.55,82.62,17.08A22.23,22.23,0,0,0,79.9,18.9l-.48.39-.4.34h0a19.06,19.06,0,0,0-3.09-8.15c-.21-.31-.44-.59-.68-.88,0,0,0,0,0,0a12.63,12.63,0,0,0-1.67-1.68A13,13,0,0,0,65,6a21.94,21.94,0,0,0-9.11,2.3h0c-.37.17-.74.36-1.12.56l-.38.2-.77.42c-.51.3-1,.6-1.52.92l-1.31.88-1.29.94-.64.49A51,51,0,0,0,42.2,19,61.86,61.86,0,0,0,30.65,38.65a20.47,20.47,0,0,0-5.48,2.23C14.59,46.94,6,61.67,6,73.8Z"/><path class="cls-19" d="M414.68,246.72c0,3.68,1.1,6.45,2.94,8.08l3.4,3.28,0,0h0c-.07-.09-.13-.19-.19-.28a4,4,0,0,1-.22-.34A12.12,12.12,0,0,1,419,251c0-8.74,6.19-19.37,13.82-23.74a14.64,14.64,0,0,1,4-1.6,44.39,44.39,0,0,1,8.33-14.16A36.54,36.54,0,0,1,449.9,207c.15-.12.3-.24.46-.35s.62-.46.93-.68.63-.43.94-.63.73-.46,1.1-.67l.55-.3.28-.15c.27-.14.54-.28.81-.4h0a16,16,0,0,1,6.57-1.66,9.38,9.38,0,0,1,6.19,2.1l-3.45-3.46h0a9.26,9.26,0,0,0-7.09-2.95,17.05,17.05,0,0,0-8.21,2.52,33,33,0,0,0-8.21,6.89,44.34,44.34,0,0,0-3.36,4.37h0v0a44.67,44.67,0,0,0-4.75,9.21l-.27.51-.1.09a14.78,14.78,0,0,0-3.79,1.56,27,27,0,0,0-8.51,8.23h0C416.75,236,414.68,241.66,414.68,246.72Z"/><path class="cls-20" d="M469.19,206.07a13.73,13.73,0,0,1,2.23,5.87h0l.29-.25c.11-.1.23-.19.35-.28a16.41,16.41,0,0,1,2-1.32c3.18-1.82,6.05-1.9,8.05-.56l.05,0L479,206.34a5.5,5.5,0,0,0-1-1l0,0h0a5.51,5.51,0,0,0-3.39-1.08h-.19a10.2,10.2,0,0,0-4.69,1.49Z"/><path class="cls-14" d="M419,251a12.13,12.13,0,0,0,1.54,6.39,4,4,0,0,0,.22.34l.19.28h0c2.42,3.19,6.8,3.73,11.81.87l41.44-23.69c6-3.45,11-11.88,11-18.81a8.71,8.71,0,0,0-1.88-6l0,0-.46-.46a5.46,5.46,0,0,0-.48-.36.05.05,0,0,0-.05,0c-2-1.35-4.86-1.27-8.05.55a17.25,17.25,0,0,0-2,1.32l-.35.28-.29.25h0a13.72,13.72,0,0,0-2.22-5.88c-.16-.22-.32-.43-.49-.63l0,0a8.59,8.59,0,0,0-1.2-1.21,9.38,9.38,0,0,0-6.19-2.1,16,16,0,0,0-6.57,1.66h0c-.27.12-.54.26-.81.4l-.28.15-.55.3c-.37.21-.73.43-1.1.67s-.63.41-.94.63-.62.44-.93.68-.31.23-.46.35a36.54,36.54,0,0,0-4.78,4.56,44.39,44.39,0,0,0-8.33,14.16,14.64,14.64,0,0,0-3.95,1.6C425.2,231.66,419,242.29,419,251Z"/><polygon class="cls-1" points="351.83 363.41 397.97 363.41 353 389.15 297.55 357.4 324.48 341.98 334.12 336.46 344.1 330.74 345.95 329.68 351.83 326.31 353 325.64 363.33 331.55 365.09 332.56 370.39 335.59 398.16 351.5 363.33 351.5 363.33 356.76 351.83 363.41"/><polygon class="cls-21" points="297.55 512.01 297.55 357.4 353 389.16 353 543.77 297.55 512.01"/><polygon class="cls-22" points="408.46 357.4 408.46 512.01 353 543.76 353 389.15 397.97 363.41 397.98 363.41 408.46 357.4"/><path class="cls-4" d="M346,336.61l-5.48,3.16h0l-3.66,9.11,15-8.67Z"/><polygon class="cls-5" points="349.02 300.26 327.17 353.34 321.28 349.74 343.13 296.67 349.02 300.26"/><path class="cls-6" d="M365.09,332.56l-.58.33-1.18.68V292l-5.9,3.4L349,300.27l-14.9,36.19-7,16.88v11.88L346,354.37l5.88-3.4v12.44l11.5-6.64V344.34l7.06-4.09V329.49Zm-13.26,7.65-15,8.67,3.66-9.11,3.63-9,1.85-4.59L351,313.49l.8-.46Z"/><polygon class="cls-7" points="351.83 313.02 351.83 340.21 345.95 336.61 345.95 326.14 351.03 313.49 351.83 313.02"/><polygon class="cls-5" points="363.33 292.01 357.44 295.41 349.02 300.26 343.13 296.67 357.44 288.41 363.33 292.01"/><polygon class="cls-5" points="327.17 353.34 327.17 365.21 321.28 361.62 321.28 349.74 327.17 353.34"/><polygon class="cls-7" points="351.83 350.97 351.83 363.41 345.95 359.81 345.95 354.37 351.83 350.97"/><polygon class="cls-7" points="351.83 340.21 336.81 348.88 340.47 339.77 345.95 336.61 351.83 340.21"/><polygon class="cls-8" points="370.4 329.49 364.51 332.89 363.33 333.57 363.33 326.58 364.51 325.89 370.4 329.49"/><polygon class="cls-8" points="408.46 357.4 397.98 363.41 351.83 363.41 363.33 356.76 363.33 351.5 398.16 351.5 408.46 357.4"/></g></g></svg>