<svg viewBox="0 0 153.1 132.93" xmlns="http://www.w3.org/2000/svg" xmlns:xlink="http://www.w3.org/1999/xlink"><linearGradient id="a" gradientUnits="userSpaceOnUse" x1="96.72" x2="102.22" y1="97.87" y2="80.26"><stop offset="0" stop-color="#304da1"/><stop offset=".77" stop-color="#52ade1"/><stop offset="1" stop-color="#5dccf5"/></linearGradient><linearGradient id="b" gradientUnits="userSpaceOnUse" x1="112.56" x2="119.68" y1="104.44" y2="87.82"><stop offset=".28" stop-color="#a5b2da"/><stop offset="1" stop-color="#435487"/></linearGradient><linearGradient id="c" gradientUnits="userSpaceOnUse" x1="115.02" x2="121" y1="98.26" y2="93.87"><stop offset="0" stop-color="#304da1"/><stop offset=".22" stop-color="#3865b1"/><stop offset=".69" stop-color="#4ea1d9"/><stop offset="1" stop-color="#5dccf5"/></linearGradient><linearGradient id="d" gradientTransform="matrix(.9 .44 -.44 .9 27.19 -37.97)" gradientUnits="userSpaceOnUse" x1="103.88" x2="129.02" y1="69.03" y2="81.9"><stop offset=".11" stop-color="#304da1"/><stop offset=".24" stop-color="#3458a8"/><stop offset=".47" stop-color="#3e74bb"/><stop offset=".76" stop-color="#4ea2d9"/><stop offset="1" stop-color="#5dccf5"/></linearGradient><linearGradient id="e" gradientTransform="matrix(.9 .44 -.44 .9 27.19 -37.97)" gradientUnits="userSpaceOnUse" x1="90.29" x2="90.29" y1="55.72" y2="78.33"><stop offset="0" stop-color="#5dccf5"/><stop offset=".33" stop-color="#5abbe9"/><stop offset=".97" stop-color="#518fcb"/><stop offset="1" stop-color="#518dca"/></linearGradient><linearGradient id="f" gradientTransform="matrix(.9 .44 -.44 .9 27.19 -37.97)" gradientUnits="userSpaceOnUse" x1="84.79" x2="88.2" y1="54.9" y2="12"><stop offset="0" stop-color="#304da1"/><stop offset="1" stop-color="#5dccf5"/></linearGradient><linearGradient id="g" gradientUnits="userSpaceOnUse" x1="89.24" x2="81.06" y1="64.65" y2="66.74"><stop offset="0" stop-color="#f68c6d"/><stop offset="1" stop-color="#e35d35"/></linearGradient><linearGradient id="h" gradientUnits="userSpaceOnUse" x1="29.68" x2="41.96" y1="63.28" y2="78.33"><stop offset="0" stop-color="#304da1"/><stop offset=".14" stop-color="#3254a6"/><stop offset=".35" stop-color="#3968b3"/><stop offset=".59" stop-color="#4588c8"/><stop offset=".87" stop-color="#54b4e5"/><stop offset="1" stop-color="#5dccf5"/></linearGradient><g fill-rule="evenodd"><path d="m98.71 78.46a110.76 110.76 0 0 0 19.94 16.41c4.07 2.59 2.33 6-.85 8.31-9.39 6.93-25.48 1.82-34.8-6.69-14.55-13.28.26-34.47 15.72-18" fill="url(#a)"/><path d="m123.11 82.85c1.27.61.87 1.69.31 3l-10.15 23.15a2.55 2.55 0 1 1 -4.6-2.22l11.92-22.36c.66-1.24 1.26-2.22 2.52-1.61" fill="url(#b)"/><path d="m133.94 63.78c4.54 2.19 5.12 10.37 1.29 18.27s-10.6 12.52-15.13 10.32l-2.59-1.25c-4.53-2.2-5.11-10.38-1.29-18.28s10.6-12.51 15.14-10.32z" fill="#4f5b7f"/><path d="m133.77 67.07c3 1.44 2.88 7.79-.21 14.17s-8 10.39-11 9-2.88-7.78.21-14.16 8-10.4 11-9" fill="#5dccf5"/><path d="m129.43 76.76a.6.6 0 0 1 -.16.82l-5.35 3.63a.59.59 0 0 1 -.82-.16.6.6 0 0 1 .15-.82l5.36-3.63a.59.59 0 0 1 .82.15" fill="#fefefe"/><path d="m133.4 78a.59.59 0 0 1 -.16.82l-5.36 3.64a.59.59 0 0 1 -.82-.16.59.59 0 0 1 .16-.82l5.35-3.63a.6.6 0 0 1 .83.15" fill="#fefefe"/><path d="m132.61 71.55a.58.58 0 0 1 -.15.82l-5.36 3.63a.59.59 0 0 1 -.82-.15.61.61 0 0 1 .16-.83l5.35-3.63a.59.59 0 0 1 .82.16" fill="#fefefe"/><path d="m116.14 104.19c1.68-1 3.87-2.52 4.7-4.46 1.89-3.08-.4-5-2.16-6.18-3-2.08-7.82-1.83-5.29 2.16 1.1 1.74 2.94 4.24 2.75 8.48" fill="url(#c)"/><path d="m64.55 110.82a4.4 4.4 0 1 1 -3.47 7.12 4.4 4.4 0 0 1 -7.28-.54 4.4 4.4 0 1 1 -3.8-6.58z" fill="#f68c6d"/><path d="m86.12 109.73 10.82-6.24a4.4 4.4 0 0 1 6 1.61 4.4 4.4 0 0 1 -1.61 6l-10.81 6.25a4.42 4.42 0 0 1 -6-1.61 4.42 4.42 0 0 1 1.61-6" fill="#f68c6d"/><g fill="#ffb06b"><path d="m108.92 119.59h-5.11c-1.36 0-3.8-.27-3.9-1.62a1.09 1.09 0 0 1 .08-.47c.55-1.26 3-1.58 4.51-1.57h4.49l3.85-1.3a9.28 9.28 0 0 1 4.85 0h.09a4.49 4.49 0 0 1 1.12.55c1 .69.59 1.48-.51 1.92l-1.69.65 1.13.3c1 .27 2.55.83 2.4 1.84-.2 1.32-2.87 1.72-4.28 1.57a5.35 5.35 0 0 1 -1.2-.26z"/><path d="m133.37 116.85h-5c-1.34 0-3.74-.27-3.84-1.59a.86.86 0 0 1 .08-.47c.54-1.24 3-1.55 4.44-1.55h4.43l3.79-1.28a9.26 9.26 0 0 1 4.79 0h.08a4.77 4.77 0 0 1 1.11.54c.95.68.58 1.46-.5 1.9l-1.67.64 1.12.29c1 .27 2.51.83 2.36 1.82-.19 1.3-2.83 1.7-4.22 1.55a5.77 5.77 0 0 1 -1.18-.26z"/><path d="m139.23 130.54h-6.27c-1.66 0-4.65-.33-4.78-2a1.29 1.29 0 0 1 .1-.58c.67-1.54 3.71-1.93 5.53-1.92h5.5l4.72-1.59a11.5 11.5 0 0 1 5.94 0h.11a6.09 6.09 0 0 1 1.38.67c1.17.84.72 1.82-.63 2.35-.69.28-1.38.54-2.07.8l1.38.37c1.27.33 3.13 1 2.94 2.26-.23 1.62-3.51 2.11-5.24 1.92a6.41 6.41 0 0 1 -1.47-.32z"/><path d="m7.63 102.68h-4.33c-1.15 0-3.21-.23-3.3-1.37a.92.92 0 0 1 .07-.4c.47-1.06 2.56-1.33 3.82-1.33h3.8l3.25-1.1a7.85 7.85 0 0 1 4.11 0h.08a4.21 4.21 0 0 1 .95.47c.81.58.49 1.25-.44 1.62l-1.43.55 1 .26c.87.23 2.16.71 2 1.56-.17 1.12-2.43 1.45-3.62 1.33a4.32 4.32 0 0 1 -1-.23z"/><path d="m26.21 114.44h-4.33c-1.15 0-3.21-.23-3.3-1.37a.92.92 0 0 1 .07-.4c.47-1.06 2.56-1.33 3.82-1.33h3.8l3.25-1.1a7.85 7.85 0 0 1 4.11 0h.07a4.08 4.08 0 0 1 1 .47c.81.58.49 1.25-.44 1.62l-1.43.55 1 .25c.87.24 2.15.71 2 1.57-.17 1.11-2.43 1.45-3.62 1.32a4.31 4.31 0 0 1 -1-.22z"/></g><path d="m114.89 54.6a34.47 34.47 0 0 1 -3.36 11.4l-12.07 24.44a34.9 34.9 0 0 1 -46.62 15.76 34.89 34.89 0 0 1 -15.77-46.61l12.07-24.42a34.51 34.51 0 0 1 7.19-9.74c-1.33-7.43-.77-18.72 5.06-25.43 20 23.29 44.94 33.45 71.69 36.09-1.66 6.94-11.74 15-18.19 18.51" fill="url(#d)"/><path d="m99.91 70.32c-.08.17-.16.34-.25.51l-7.99 16.17c-5.62 11.36-17.84 16.88-27.16 12.28-9.31-4.61-12.34-17.68-6.72-29l8-16.17c.08-.16.16-.33.25-.49z" fill="#a5b2da"/><path d="m81.87 88.57a1.63 1.63 0 0 0 2.32-.79l1-3.78c.59-2.36-.1-2.7-1.62-.8l-2.43 3a1.63 1.63 0 0 0 .78 2.32m-10.79 4.86a1.62 1.62 0 0 0 2.32-.78l1-3.78c.59-2.37-.1-2.7-1.62-.8l-2.43 3a1.62 1.62 0 0 0 .73 2.36zm-2.75-11a1.63 1.63 0 0 0 2.32-.79l.94-3.78c.59-2.36-.09-2.7-1.61-.8l-2.43 3a1.63 1.63 0 0 0 .78 2.37z" fill="#304da1"/><path d="m81.56 29.1 21.18 10.48a19.64 19.64 0 0 1 8.88 26.25 19.65 19.65 0 0 1 -26.25 8.88l-21.18-10.48a19.65 19.65 0 0 1 -8.88-26.23 19.66 19.66 0 0 1 26.25-8.9" fill="url(#e)"/><path d="m76.57 36.92a8.68 8.68 0 0 1 3.92 11.58l-1.49 3.1a8.66 8.66 0 0 1 -11.58 3.92 8.68 8.68 0 0 1 -3.92-11.58l1.5-3.1a8.67 8.67 0 0 1 11.58-3.92" fill="#fefefe"/><path d="m107 52a6.43 6.43 0 0 1 2.9 8.59l-3.51 7.11a6.42 6.42 0 0 1 -11.51-5.7l3.52-7.1a6.44 6.44 0 0 1 8.6-2.9" fill="#fefefe"/><path d="m76.6 37a8.67 8.67 0 0 1 3.93 11.59l-1.53 3.1a8.67 8.67 0 0 1 -11.59 3.93 8.69 8.69 0 0 1 -3.93-11.62l1.52-3.08a8.67 8.67 0 0 1 11.6-3.92" fill="#fefefe"/><path d="m107.07 52a6.44 6.44 0 0 1 2.92 8.6l-3.52 7.12a6.44 6.44 0 0 1 -8.6 2.91 6.44 6.44 0 0 1 -2.87-8.57l3.51-7.12a6.44 6.44 0 0 1 8.6-2.91" fill="#fefefe"/><path d="m76.45 44.64a5.42 5.42 0 0 1 2.55 7.15 8.69 8.69 0 0 1 -7.72 4.72c-.18-.07-.35-.14-.53-.23a5.44 5.44 0 0 1 -2.51-7.28l1-1.94a5.42 5.42 0 0 1 7.25-2.45" fill="#304da1"/><path d="m107 59.71a5.41 5.41 0 0 1 2.33 2.29l-2.86 5.78a6.42 6.42 0 0 1 -5.33 3.55 5.41 5.41 0 0 1 -2.36-7.19l1-1.94a5.43 5.43 0 0 1 7.22-2.49" fill="#304da1"/><path d="m67.2 48.82h5.22c.81 0 1.06-.59.57-1.29l-2.89-4.14v-.06z" fill="#fefefe"/><path d="m97.35 63.71 5.22-.06c.8 0 1.06-.59.56-1.29l-2.89-4.09v-.06z" fill="#fefefe"/><path d="m61.44.06c19.94 23.23 44.87 33.37 71.57 36-17.49 18.23-34 8.76-45.67 31.08 11-20.58-26.5-41.69-25.9-67.1" fill="url(#f)"/><path d="m93.69 69c-9 9.11-16.86 2.72-10.53-8.62z" fill="#5973b8"/><path d="m92.05 57.81a6.71 6.71 0 0 1 3.2 8.94c-.89 1.81-4.56 5.83-6.47 6-2.32.21-2.38-2.58-5.59-6-1.43-1.52-1.15-4.07-.17-6a6.71 6.71 0 0 1 9-2.89" fill="#ffb06b"/><path d="m88.29 72.75c-1.86-.21-2.14-2.83-5.1-6-1.43-1.52-1.15-4.07-.17-6a6.7 6.7 0 0 1 9-2.91 22.56 22.56 0 0 1 -3.72 15" fill="url(#g)"/><path d="m94.44 61.77c.36-.15.65.3.65 1a1.81 1.81 0 0 1 -.68 1.56c-.37.15-.66-.3-.65-1a1.79 1.79 0 0 1 .68-1.56" fill="#ffe4b8"/><path d="m33 53.61a111.07 111.07 0 0 1 -23 11.65c-4.54 1.63-3.58 5.32-1 8.3 7.65 8.81 24.46 7.35 35.43 1.08 17.1-9.78 7.28-33.71-11.4-21" fill="url(#h)"/></g></svg>