<svg id="faq-3" xmlns="http://www.w3.org/2000/svg" width="327.687" height="336" viewBox="0 0 327.687 336">
  <ellipse id="Ellipse_62" data-name="Ellipse 62" cx="10.903" cy="4.089" rx="10.903" ry="4.089" transform="translate(62.811 327.371)" fill="#2f2e41"/>
  <ellipse id="Ellipse_63" data-name="Ellipse 63" cx="10.903" cy="4.089" rx="10.903" ry="4.089" transform="translate(88.978 326.826)" fill="#2f2e41"/>
  <ellipse id="Ellipse_64" data-name="Ellipse 64" cx="21.534" cy="6.76" rx="21.534" ry="6.76" transform="translate(109.209 265.323) rotate(-29.962)" fill="#2f2e41"/>
  <circle id="Ellipse_65" data-name="Ellipse 65" cx="43.067" cy="43.067" r="43.067" transform="translate(33.027 309.557) rotate(-80.783)" fill="#2f2e41"/>
  <rect id="Rectangle_27" data-name="Rectangle 27" width="13.084" height="23.442" transform="translate(62.811 307.746)" fill="#2f2e41"/>
  <rect id="Rectangle_28" data-name="Rectangle 28" width="13.084" height="23.442" transform="translate(88.978 307.746)" fill="#2f2e41"/>
  <circle id="Ellipse_66" data-name="Ellipse 66" cx="14.719" cy="14.719" r="14.719" transform="translate(68.808 248.324)" fill="#fff"/>
  <circle id="Ellipse_67" data-name="Ellipse 67" cx="4.906" cy="4.906" r="4.906" transform="translate(78.62 258.137)" fill="#3f3d56"/>
  <path id="Path_69" data-name="Path 69" d="M379.16,515.9c-3.477-15.574,7.639-31.31,24.829-35.149S437.933,486.421,441.41,502s-7.915,21.318-25.1,25.156S382.637,531.469,379.16,515.9Z" transform="translate(-338.5 -282)" fill="#e6e6e6"/>
  <ellipse id="Ellipse_68" data-name="Ellipse 68" cx="6.76" cy="21.534" rx="6.76" ry="21.534" transform="translate(11.576 250.843) rotate(-64.626)" fill="#2f2e41"/>
  <path id="Path_70" data-name="Path 70" d="M399.782,571.483c0,4.215,10.853,12.539,22.9,12.539s23.335-11.867,23.335-16.082-11.292.818-23.335.818S399.782,567.268,399.782,571.483Z" transform="translate(-338.5 -282)" fill="#fff"/>
  <ellipse id="Ellipse_69" data-name="Ellipse 69" cx="10.903" cy="4.089" rx="10.903" ry="4.089" transform="translate(221.706 327.371)" fill="#2f2e41"/>
  <ellipse id="Ellipse_70" data-name="Ellipse 70" cx="10.903" cy="4.089" rx="10.903" ry="4.089" transform="translate(195.538 326.826)" fill="#2f2e41"/>
  <ellipse id="Ellipse_71" data-name="Ellipse 71" cx="6.76" cy="21.534" rx="6.76" ry="21.534" transform="translate(153.044 255.525) rotate(-60.038)" fill="#2f2e41"/>
  <circle id="Ellipse_72" data-name="Ellipse 72" cx="43.067" cy="43.067" r="43.067" transform="translate(180.819 230.879)" fill="#2f2e41"/>
  <rect id="Rectangle_29" data-name="Rectangle 29" width="13.084" height="23.442" transform="translate(230.428 307.746)" fill="#2f2e41"/>
  <rect id="Rectangle_30" data-name="Rectangle 30" width="13.084" height="23.442" transform="translate(204.261 307.746)" fill="#2f2e41"/>
  <circle id="Ellipse_73" data-name="Ellipse 73" cx="14.719" cy="14.719" r="14.719" transform="translate(199.077 248.324)" fill="#fff"/>
  <ellipse id="Ellipse_74" data-name="Ellipse 74" cx="4.921" cy="4.886" rx="4.921" ry="4.886" transform="translate(199.86 261.062) rotate(-44.974)" fill="#3f3d56"/>
  <path id="Path_71" data-name="Path 71" d="M567.018,527.151c-17.19-3.838-28.582-9.582-25.1-25.156s20.232-25.087,37.422-21.249,28.306,19.575,24.829,35.149S584.208,530.989,567.018,527.151Z" transform="translate(-338.5 -282)" fill="#4969ed"/>
  <ellipse id="Ellipse_75" data-name="Ellipse 75" cx="6.76" cy="21.534" rx="6.76" ry="21.534" transform="matrix(0.966, -0.257, 0.257, 0.966, 251.331, 266.889)" fill="#2f2e41"/>
  <path id="Path_72" data-name="Path 72" d="M552.629,568.758c-7.907,0-15.32-5.033-15.32-.818s7.413,16.082,15.32,16.082,15.032-8.323,15.032-12.539S560.536,568.758,552.629,568.758Z" transform="translate(-338.5 -282)" fill="#fff"/>
  <path id="Path_73" data-name="Path 73" d="M496.972,484.539h-3.825a12.937,12.937,0,0,1-12.923-12.923v-3.211c0-7.953,1.507-14.612,4.479-19.793a104.112,104.112,0,0,1,12.542-16.852,74.269,74.269,0,0,0,8.528-10.279,17.29,17.29,0,0,0,2.693-9.562c0-7.978-5.2-11.856-15.891-11.856a64.524,64.524,0,0,0-17.515,2.629,14.745,14.745,0,0,1-18.793-14.178v-6.5a14.463,14.463,0,0,1,8.532-13.256,78.083,78.083,0,0,1,31.81-6.258c11.444,0,21.775,1.922,30.707,5.713,8.948,3.8,16.017,9.157,21.011,15.924a38.352,38.352,0,0,1,7.536,23.244c0,8.98-2.452,16.8-7.287,23.247-4.782,6.38-11.638,13.364-20.376,20.76a145.2,145.2,0,0,0-13.063,12.307,22.718,22.718,0,0,0-5.431,10.111,12.888,12.888,0,0,1-12.735,10.733Z" transform="translate(-338.5 -282)" fill="#4969ed"/>
  <path id="Path_74" data-name="Path 74" d="M494.845,545.311h-.5a23.951,23.951,0,0,1,0-47.9h.5a23.951,23.951,0,1,1,0,47.9Z" transform="translate(-338.5 -282)" fill="#4969ed"/>
  <path id="Path_75" data-name="Path 75" d="M650.5,618h-311a1,1,0,0,1,0-2h311a1,1,0,0,1,0,2Z" transform="translate(-338.5 -282)" fill="#ccc"/>
  <path id="Path_79" data-name="Path 79" d="M553.661,331h-26a5.006,5.006,0,0,1-5-5V300a5.006,5.006,0,0,1,5-5h26a5.006,5.006,0,0,1,5,5v26a5.006,5.006,0,0,1-5,5Zm-26-34a3,3,0,0,0-3,3v26a3,3,0,0,0,3,3h26a3,3,0,0,0,3-3V300a3,3,0,0,0-3-3Z" transform="translate(-338.5 -282)" fill="#f2f2f2"/>
  <path id="Path_80" data-name="Path 80" d="M537.661,318h-26a5.006,5.006,0,0,1-5-5V287a5.006,5.006,0,0,1,5-5h26a5.006,5.006,0,0,1,5,5v26a5.006,5.006,0,0,1-5,5Zm-26-34a3,3,0,0,0-3,3v26a3,3,0,0,0,3,3h26a3,3,0,0,0,3-3V287a3,3,0,0,0-3-3Z" transform="translate(-338.5 -282)" fill="#f2f2f2"/>
  <circle id="Ellipse_77" data-name="Ellipse 77" cx="6.467" cy="6.467" r="6.467" transform="translate(314.753 176.703)" fill="#f2f2f2"/>
  <circle id="Ellipse_78" data-name="Ellipse 78" cx="6.467" cy="6.467" r="6.467" transform="translate(54.754 153.703)" fill="#f2f2f2"/>
</svg>
