<svg xmlns="http://www.w3.org/2000/svg" width="634.388" height="584.349" viewBox="0 0 634.388 584.349">
  <g id="terms" transform="translate(0 -0.001)">
    <path id="Path_39" data-name="Path 39" d="M574.1,479.328c-.113,0-.185,0-.209,0H560.326v-2H573.94c.315.011,6.746.193,12.671-7,8.83-10.715,16.081-37.24.481-102.756-20.975-88.1-3.481-165.923,5.014-195.295a9.752,9.752,0,0,0-9.383-12.452H380.148a9.8,9.8,0,0,0-7.9,4.021c-3.6,4.95-8.537,14.46-11.627,31.655l-1.968-.354c3.157-17.569,8.256-27.358,11.978-32.478a11.8,11.8,0,0,1,9.517-4.845H582.723a11.753,11.753,0,0,1,11.3,15.007c-8.451,29.22-25.855,106.644-4.99,194.277,15.818,66.438,8.214,93.537-.951,104.572C582.043,478.959,575.382,479.328,574.1,479.328Z" transform="translate(-282.806 -157.825)" fill="#e6e6e6"/>
    <path id="Path_40" data-name="Path 40" d="M537.6,515.828c-.113,0-.185,0-.209,0H523.826v-2H537.44c.317.01,6.746.193,12.671-7,8.83-10.715,16.081-37.24.481-102.756-20.975-88.1-3.481-165.923,5.014-195.295a9.752,9.752,0,0,0-9.383-12.452H343.648a9.8,9.8,0,0,0-7.9,4.021c-3.6,4.95-8.537,14.46-11.627,31.655l-1.969-.354c3.157-17.569,8.256-27.358,11.978-32.478a11.8,11.8,0,0,1,9.517-4.845H546.223a11.753,11.753,0,0,1,11.3,15.007c-8.451,29.22-25.855,106.644-4.99,194.277,15.818,66.438,8.214,93.537-.951,104.572C545.543,515.459,538.882,515.828,537.6,515.828Z" transform="translate(-282.806 -157.825)" fill="#ccc"/>
    <path id="Path_41" data-name="Path 41" d="M501.1,552.328c-.113,0-.185,0-.209,0H301.438a11.75,11.75,0,0,1-10.928-16.1c7.237-18.081,16.981-61.459.931-148.839-18.951-103.18-1.985-140.47,6.189-151.713a11.8,11.8,0,0,1,9.518-4.845H509.723a11.753,11.753,0,0,1,11.3,15.007c-8.451,29.22-25.855,106.644-4.99,194.277,15.818,66.438,8.214,93.537-.951,104.572C509.043,551.959,502.382,552.328,501.1,552.328Zm-193.952-319.5a9.8,9.8,0,0,0-7.9,4.021c-8.023,11.035-24.651,47.757-5.84,150.176,15.332,83.474,7.9,127.614-1.042,149.944a9.587,9.587,0,0,0,.977,9.064,9.763,9.763,0,0,0,8.095,4.294h199.5c.315.015,6.746.193,12.671-7,8.83-10.715,16.081-37.24.481-102.756-20.975-88.1-3.481-165.923,5.014-195.295a9.752,9.752,0,0,0-9.383-12.452Z" transform="translate(-282.806 -157.825)" fill="#3f3d56"/>
    <path id="Path_42" data-name="Path 42" d="M475.267,320.825h-159a8,8,0,0,1,0-16h159a8,8,0,0,1,0,16Z" transform="translate(-282.806 -157.825)" fill="#4969ed"/>
    <path id="Path_43" data-name="Path 43" d="M475.267,354.825h-159a8,8,0,0,1,0-16h159a8,8,0,0,1,0,16Z" transform="translate(-282.806 -157.825)" fill="#ccc"/>
    <path id="Path_44" data-name="Path 44" d="M475.267,388.825h-159a8,8,0,0,1,0-16h159a8,8,0,0,1,0,16Z" transform="translate(-282.806 -157.825)" fill="#ccc"/>
    <path id="Path_45" data-name="Path 45" d="M487.267,422.825h-159a8,8,0,0,1,0-16h159a8,8,0,0,1,0,16Z" transform="translate(-282.806 -157.825)" fill="#ccc"/>
    <path id="Path_46" data-name="Path 46" d="M487.267,456.825h-159a8,8,0,0,1,0-16h159a8,8,0,0,1,0,16Z" transform="translate(-282.806 -157.825)" fill="#ccc"/>
    <path id="Path_47" data-name="Path 47" d="M391.267,286.825h-75a8,8,0,0,1,0-16h75a8,8,0,0,1,0,16Z" transform="translate(-282.806 -157.825)" fill="#4969ed"/>
    <path id="Path_49" data-name="Path 49" d="M688.083,681.265A458.039,458.039,0,0,0,692.4,740.12c.095.685.2,1.37.293,2.055l184.4-1.03c.541-.68,1.074-1.369,1.591-2.065,1.722-2.306,3.335-4.677,4.816-7.13,7.12-11.817,10.379-25.653,7.113-35.2l-.058-.148a16.752,16.752,0,0,0-3.269-5.681c-7.447-8.383-22.5-6.985-36.168-.219,12.255-13.415,22.014-30.343,22.756-45.453.727-14.738-6.979-25.267-15.338-34.214-.274-.3-.548-.583-.823-.871-.133-.148-.274-.288-.407-.435-6.522-6.819-14.125-13.54-25.129-12.727-12.07.893-25.451,11-34.833,22.783s-15.617,25.145-21.937,38.2-13.174,26.42-23.328,37.569c13.753-17.4,24.842-37.189,28.938-56.439s.491-37.738-11.766-46.8a28.669,28.669,0,0,0-12.558-5.067c-.529-.088-1.066-.159-1.612-.222-11.347-1.291-24.895,2.633-36.422,12.014-12.7,10.329-21.5,25.641-25.875,40.177S687.941,667.738,688.083,681.265Z" transform="translate(-282.806 -157.825)" fill="#f2f2f2"/>
    <path id="Path_50" data-name="Path 50" d="M808.729,741.526l3.526-.02q1.679-1.05,3.375-2.075c.7-.442,1.407-.867,2.116-1.3q17.544-10.715,35.308-20.556,17.747-9.849,35.674-18.79a1.478,1.478,0,0,0,.85-1.69.427.427,0,0,0-.059-.124c-.167-.313-.539-.443-1.083-.176-1.466.735-2.94,1.47-4.406,2.222q-17.975,9.094-35.8,19.1t-35.414,20.878c-.247.15-.494.308-.741.458C810.96,740.143,809.849,740.835,808.729,741.526Z" transform="translate(-282.806 -157.825)" fill="#fff"/>
    <path id="Path_51" data-name="Path 51" d="M763.264,741.781l2.18-.012c.492-.688.975-1.376,1.467-2.065q17.332-24.3,34.656-48.608,28.371-39.79,56.724-79.579a1.4,1.4,0,0,0,.245-.48c.162-.587-.27-.932-.823-.871a1.656,1.656,0,0,0-1.152.733q-15.906,22.314-31.8,44.611L768.32,734.683c-1.2,1.675-2.393,3.358-3.589,5.033C764.24,740.4,763.748,741.092,763.264,741.781Z" transform="translate(-282.806 -157.825)" fill="#fff"/>
    <path id="Path_52" data-name="Path 52" d="M714.688,729.118c.111,3.675.354,7.291.672,10.873q.092,1.028.185,2.055l2.288-.013c-.07-.685-.14-1.37-.2-2.055-.483-5.176-.826-10.41-.873-15.786a220.228,220.228,0,0,1,4.336-44.392,276.391,276.391,0,0,1,13.428-46.119,316.728,316.728,0,0,1,21.97-45.63,1.218,1.218,0,0,0,.2-.81c-.094-.652-.963-.845-1.612-.222a1.893,1.893,0,0,0-.328.415q-1.583,2.722-3.108,5.46a316.52,316.52,0,0,0-21.028,45.79A275.081,275.081,0,0,0,718.1,684.872a217.27,217.27,0,0,0-3.412,44.246Z" transform="translate(-282.806 -157.825)" fill="#fff"/>
    <path id="Path_53" data-name="Path 53" d="M491.811,512.358a2.5,2.5,0,0,1,1.362-4.41,41.29,41.29,0,0,1,16.193,1.66l53.315,16.466a5.5,5.5,0,0,1-3.246,10.51L506.12,520.118a41.292,41.292,0,0,1-14.309-7.76Z" transform="translate(-282.806 -157.825)" fill="#3f3d56"/>
    <path id="Path_54" data-name="Path 54" d="M710.358,580.757a10.743,10.743,0,0,1-4.868-15.737l-9.139-47.792,23.291-1.816,1.406,46.747a10.8,10.8,0,0,1-10.691,18.6Z" transform="translate(-282.806 -157.825)" fill="#ffb8b8"/>
    <path id="Path_55" data-name="Path 55" d="M694.914,556.092,671.191,445.61a17.5,17.5,0,1,1,34.22-7.347l23.723,110.481a4.506,4.506,0,0,1-3.455,5.345l-25.421,5.458a4.5,4.5,0,0,1-5.344-3.455Z" transform="translate(-282.806 -157.825)" fill="#4969ed"/>
    <path id="Path_56" data-name="Path 56" d="M373.17,572.064H360.911l-5.833-47.288h18.1Z" fill="#ffb8b8"/>
    <path id="Path_57" data-name="Path 57" d="M352.154,568.561H375.8v14.887h-38.53a14.887,14.887,0,0,1,14.887-14.887Z" fill="#2f2e41"/>
    <path id="Path_58" data-name="Path 58" d="M414.17,571.064H401.911l-5.833-47.288h18.1Z" fill="#ffb8b8"/>
    <path id="Path_59" data-name="Path 59" d="M393.154,567.561H416.8v14.887h-38.53A14.887,14.887,0,0,1,393.154,567.561Z" fill="#2f2e41"/>
    <path id="Path_60" data-name="Path 60" d="M641.288,721.068a4.469,4.469,0,0,1-1.616-3.062L625.419,561.227a4.5,4.5,0,0,1,4.313-4.9l71.48-2.681a4.5,4.5,0,0,1,4.666,4.662l-5.714,156.177a4.508,4.508,0,0,1-4.09,4.316l-14.413,1.311a4.5,4.5,0,0,1-4.9-4.183l-6.615-99.217a1.436,1.436,0,0,0-1.5-1.4h-.006a1.437,1.437,0,0,0-1.492,1.411l-5.919,99.886a4.479,4.479,0,0,1-4.044,4.211l-12.591,1.26a4.47,4.47,0,0,1-3.313-1.008Z" transform="translate(-282.806 -157.825)" fill="#2f2e41"/>
    <circle id="Ellipse_58" data-name="Ellipse 58" cx="24.561" cy="24.561" r="24.561" transform="translate(361.416 194.401)" fill="#ffb8b8"/>
    <path id="Path_61" data-name="Path 61" d="M621.485,562.288a4.462,4.462,0,0,1-1.053-3.679c4.534-27.562,1.979-68.074-.964-97.207a44.2,44.2,0,0,1,18.241-40.3l12.827-10.994a4.57,4.57,0,0,1,3.057-1.082l31.866.91a4.483,4.483,0,0,1,3.053,1.317l4.924,10.9.051.037a44.07,44.07,0,0,1,17.915,37.69l-4.69,96.936a4.524,4.524,0,0,1-4.347,4.28l-77.347,2.718-.149,0a4.489,4.489,0,0,1-3.384-1.532Z" transform="translate(-282.806 -157.825)" fill="#4969ed"/>
    <path id="Path_62" data-name="Path 62" d="M528.709,521.837a10.743,10.743,0,0,1,12.366-10.882l39.865-27.9,11.19,20.508L550.053,523.98a10.8,10.8,0,0,1-21.344-2.143Z" transform="translate(-282.806 -157.825)" fill="#ffb8b8"/>
    <path id="Path_63" data-name="Path 63" d="M562.258,526.687a4.473,4.473,0,0,1-2.945-1.785l-15.385-20.96a4.506,4.506,0,0,1,.965-6.291l91.095-66.863A17.5,17.5,0,0,1,656.7,459L565.6,525.866a4.469,4.469,0,0,1-2.653.873,4.594,4.594,0,0,1-.692-.052Z" transform="translate(-282.806 -157.825)" fill="#4969ed"/>
    <path id="Path_64" data-name="Path 64" d="M670.04,398.652c3.257-3.994,2.9-10.077.286-14.518s-7.052-7.5-11.618-9.889-9.417-4.268-13.714-7.113-4.11-14.888-5.254-19.912l2.729.909c-1.049-1.342-1.385-5.307-2.434-6.649,3.084.3,5.455,3.232,8.539,3.537l-1.779-4.776c10.574-.652,17.149,6.7,27.723,6.044,5.239-.323,10.929-.527,15.236,2.473,3.743,2.607,5.637,7.12,6.881,11.509,2.669,9.423,3.084,19.979-1.526,28.62s-15.237,14.464-24.52,11.344Z" transform="translate(-282.806 -157.825)" fill="#2f2e41"/>
    <path id="Path_65" data-name="Path 65" d="M535.194,741.825h381a1,1,0,0,0,0-2h-381a1,1,0,0,0,0,2Z" transform="translate(-282.806 -157.825)" fill="#3f3d56"/>
  </g>
</svg>
