<svg xmlns="http://www.w3.org/2000/svg" xmlns:xlink="http://www.w3.org/1999/xlink" width="614.828" height="83" viewBox="0 0 614.828 83">
  <defs>
    <linearGradient id="linear-gradient" x1="0.04" y1="1" x2="1" y2="0.955" gradientUnits="objectBoundingBox">
      <stop offset="0" stop-color="#0094cc"/>
      <stop offset="1" stop-color="#00c6d5"/>
    </linearGradient>
  </defs>
  <g id="Group_3" data-name="Group 3" transform="translate(-614 -315)">
    <text id="QUOCO" transform="translate(614 377)" fill="#fff" font-size="59" font-family="Poppins-SemiBold, Poppins" font-weight="600" letter-spacing="0.383em"><tspan x="0" y="0">QUOCO</tspan></text>
    <path id="Path_2" data-name="Path 2" d="M32.863-11.918c0-14.514-21.122-9.912-21.122-18.172,0-3.363,2.419-4.956,5.664-4.838,3.54.059,5.723,2.183,5.9,4.9h9.086c-.531-7.434-6.313-11.741-14.75-11.741-8.5,0-14.514,4.484-14.514,11.918C3.068-14.927,24.308-20.3,24.308-11.387c0,2.95-2.3,5.015-6.2,5.015-3.835,0-6.018-2.183-6.254-5.487H3.009C3.127-4.071,9.735.413,18.29.413,27.671.413,32.863-5.428,32.863-11.918Zm69.915-8.791c0-12.331-9.322-21.063-21.063-21.063-11.623,0-21.122,8.732-21.122,21.063A20.7,20.7,0,0,0,81.715.413,20.615,20.615,0,0,0,102.778-20.709Zm-33.689,0c0-8.378,5.133-13.629,12.626-13.629,7.434,0,12.567,5.251,12.567,13.629S89.149-6.962,81.715-6.962C74.222-6.962,69.089-12.331,69.089-20.709Zm62.422-20.473V0h21.83V-6.549h-13.57V-41.182ZM209.155,0h8.732L203.078-41.241h-9.617L178.652,0h8.673l2.714-7.847h16.4ZM204.2-14.455H192.281l5.959-17.228ZM267.86-28.379c0,3.717-2.065,6.136-6.667,6.136h-6.9v-12.1h6.9C265.8-34.338,267.86-32.037,267.86-28.379Zm-21.83-12.8V0h8.26V-16.048h3.894L267.27,0h9.558l-9.853-16.7c6.608-1.77,9.381-6.844,9.381-11.859,0-6.9-4.956-12.626-14.868-12.626Z" transform="translate(952 377)" fill="url(#linear-gradient)"/>
  </g>
</svg>
